<svg xmlns="http://www.w3.org/2000/svg" width="80" height="80" viewBox="0 0 72 72">
  <circle cx="36" cy="36" r="34" fill="#4a7058" stroke="#4a7058" stroke-width="1"/>
  <ellipse cx="36" cy="17" rx="7" ry="17" fill="#e8f0eb"/>
  <ellipse cx="36" cy="55" rx="5.5" ry="13" fill="#a8c8b0" opacity="0.8"/>
  <ellipse cx="55" cy="36" rx="17" ry="7" fill="#7ac4ca" opacity="0.9"/>
  <ellipse cx="17" cy="36" rx="17" ry="7" fill="#7ac4ca" opacity="0.6"/>
  <ellipse cx="36" cy="36" rx="4.5" ry="11" fill="#e8f0eb" opacity="0.5" transform="rotate(42 36 36) translate(0 -14)"/>
  <ellipse cx="36" cy="36" rx="4.5" ry="11" fill="#e8f0eb" opacity="0.5" transform="rotate(-42 36 36) translate(0 -14)"/>
  <ellipse cx="36" cy="36" rx="3.5" ry="9" fill="#a8c8b0" opacity="0.4" transform="rotate(135 36 36) translate(0 -14)"/>
  <ellipse cx="36" cy="36" rx="3.5" ry="9" fill="#a8c8b0" opacity="0.4" transform="rotate(-135 36 36) translate(0 -14)"/>
  <circle cx="36" cy="36" r="7" fill="#e8f0eb"/>
  <circle cx="36" cy="36" r="3" fill="#4a7058"/>
  <line x1="36" y1="29" x2="36" y2="17" stroke="#4a7058" stroke-width="0.8" opacity="0.5"/>
  <line x1="36" y1="43" x2="36" y2="53" stroke="#4a7058" stroke-width="0.8" opacity="0.4"/>
  <line x1="43" y1="36" x2="55" y2="36" stroke="#4a7058" stroke-width="0.8" opacity="0.4"/>
  <line x1="29" y1="36" x2="17" y2="36" stroke="#4a7058" stroke-width="0.8" opacity="0.3"/>
</svg>
